<svg xmlns="http://www.w3.org/2000/svg" xmlns:xlink="http://www.w3.org/1999/xlink" width="212pt" height="292pt" viewBox="0 0 212 292"><g id="graph0" class="graph" transform="scale(1 1) rotate(0) translate(4 288)"><title>G</title><polygon fill="#fff" stroke="transparent" points="-4 4 -4 -288 208 -288 208 4 -4 4"/><g id="n5" class="node"><title>n5</title><polygon fill="none" stroke="#000" points="36 -209 36 -233 84 -233 84 -209 36 -209"/><text x="54.555" y="-216.8" fill="#000" font-family="Serif" font-size="14" text-anchor="start">fit</text></g><g id="e1" class="edge"><title>n1p1:s-&gt;n5:n</title><path fill="none" stroke="#000" d="M12,-283C12,-257.4354 43.3775,-259.8918 47.5448,-238.0487"/><polygon fill="#000" stroke="#000" points="49.294 -238.137 48 -233 45.808 -237.823 49.294 -238.137"/><text x="44.669" y="-253.8" fill="#000" font-family="Serif" font-size="14" text-anchor="middle">X</text></g><g id="e2" class="edge"><title>n1p2:s-&gt;n5:n</title><path fill="none" stroke="#000" d="M72,-283C72,-262.6875 72,-256.3002 72,-238.3811"/><polygon fill="#000" stroke="#000" points="73.75 -238 72 -233 70.25 -238 73.75 -238"/><text x="77.669" y="-253.8" fill="#000" font-family="Serif" font-size="14" text-anchor="middle">Y</text></g><g id="n7" class="node"><title>n7</title><polygon fill="none" stroke="#000" points="120 -209 120 -233 144 -233 144 -209 120 -209"/><text x="126.552" y="-216.8" fill="#000" font-family="Serif" font-size="14" text-anchor="start">id</text></g><g id="e4" class="edge"><title>n1p3:s-&gt;n7:n</title><path fill="none" stroke="#000" d="M132,-283C132,-262.6875 132,-256.3002 132,-238.3811"/><polygon fill="#000" stroke="#000" points="133.75 -238 132 -233 130.25 -238 133.75 -238"/><text x="136.669" y="-253.8" fill="#000" font-family="Serif" font-size="14" text-anchor="middle">X</text></g><g id="n6" class="node"><title>n6</title><polygon fill="none" stroke="#000" points="173 -167 173 -191 197 -191 197 -167 173 -167"/><text x="179.552" y="-174.8" fill="#000" font-family="Serif" font-size="14" text-anchor="start">id</text></g><g id="e3" class="edge"><title>n1p4:s-&gt;n6:n</title><path fill="none" stroke="#000" d="M192,-283C192,-243.7549 185.5886,-232.9225 185.0377,-196.1192"/><polygon fill="#000" stroke="#000" points="186.787 -195.987 185 -191 183.287 -196.013 186.787 -195.987"/><text x="195.669" y="-253.8" fill="#000" font-family="Serif" font-size="14" text-anchor="middle">Y</text></g><g id="n3" class="node"><title>n3</title><polygon fill="none" stroke="#000" points="93 -125 93 -149 145 -149 145 -125 93 -125"/><text x="97.99" y="-132.8" fill="#000" font-family="Serif" font-size="14" text-anchor="start">predict</text></g><g id="n4" class="node"><title>n4</title><polygon fill="none" stroke="#000" points="137 -51 137 -75 185 -75 185 -51 137 -51"/><text x="148.552" y="-58.8" fill="#000" font-family="Serif" font-size="14" text-anchor="start">loss</text></g><g id="e5" class="edge"><title>n3:s-&gt;n4:n</title><path fill="none" stroke="#000" d="M119,-125C119,-100.9068 144.9296,-100.7951 148.5759,-80.0743"/><polygon fill="#000" stroke="#000" points="150.327 -80.128 149 -75 146.84 -79.837 150.327 -80.128"/><text x="145.669" y="-95.8" fill="#000" font-family="Serif" font-size="14" text-anchor="middle">Y</text></g><g id="e6" class="edge"><title>n4:s-&gt;n2p1:n</title><path fill="none" stroke="#000" d="M161,-51C161,-30.6875 161,-24.3002 161,-6.3811"/><polygon fill="#000" stroke="#000" points="162.75 -6 161 -1 159.25 -6 162.75 -6"/><text x="166.055" y="-21.8" fill="#000" font-family="Serif" font-size="14" text-anchor="middle">R</text></g><g id="e7" class="edge"><title>n5:s-&gt;n3:n</title><path fill="none" stroke="#000" d="M60,-209C60,-177.2357 101.1063,-181.936 105.6023,-154.16"/><polygon fill="#000" stroke="#000" points="107.361 -154.12 106 -149 103.871 -153.851 107.361 -154.12"/><text x="103.276" y="-174.8" fill="#000" font-family="Serif" font-size="14" text-anchor="middle">β</text></g><g id="e8" class="edge"><title>n6:s-&gt;n4:n</title><path fill="none" stroke="#000" d="M185,-167C185,-127.5366 174.0091,-117.1127 173.0646,-80.1449"/><polygon fill="#000" stroke="#000" points="174.813 -79.978 173 -75 171.313 -80.022 174.813 -79.978"/><text x="188.669" y="-132.8" fill="#000" font-family="Serif" font-size="14" text-anchor="middle">Y</text></g><g id="e9" class="edge"><title>n7:s-&gt;n3:n</title><path fill="none" stroke="#000" d="M132,-209C132,-184.1042 132,-176.6403 132,-154.0596"/><polygon fill="#000" stroke="#000" points="133.75 -154 132 -149 130.25 -154 133.75 -154"/><text x="136.669" y="-174.8" fill="#000" font-family="Serif" font-size="14" text-anchor="middle">X</text></g></g></svg>