<svg xmlns="http://www.w3.org/2000/svg" xmlns:xlink="http://www.w3.org/1999/xlink" width="310pt" height="488" viewBox="0 0 309.92 366"><g id="graph0" class="graph" transform="scale(1 1) rotate(0) translate(4 362)"><title>G</title><polygon fill="#fff" stroke="transparent" points="-4 4 -4 -362 305.917 -362 305.917 4 -4 4"/><g id="n7" class="node"><title>n7</title><polygon fill="none" stroke="#000" points="54 -283 54 -307 102 -307 102 -283 54 -283"/><text x="58.935" y="-290.8" fill="#000" font-family="Serif" font-size="14" text-anchor="start">derive</text></g><g id="e3" class="edge"><title>n1p1:s-&gt;n7:n</title><path fill="none" stroke="#000" d="M12,-357C12,-342.7777 3.7548,-336.5288 12.083,-325 25.7208,-306.1211 60.0355,-328.2228 65.3139,-311.9988"/><polygon fill="#000" stroke="#000" points="67.054 -312.192 66 -307 63.586 -311.716 67.054 -312.192"/><text x="49.959" y="-327.8" fill="#000" font-family="Serif" font-size="14" text-anchor="middle">Formulation</text></g><g id="e4" class="edge"><title>n1p2:s-&gt;n7:n</title><path fill="none" stroke="#000" d="M90,-357C90,-336.6875 90,-330.3002 90,-312.3811"/><polygon fill="#000" stroke="#000" points="91.75 -312 90 -307 88.25 -312 91.75 -312"/><text x="125.003" y="-327.8" fill="#000" font-family="Serif" font-size="14" text-anchor="middle">Framework</text></g><g id="n3" class="node"><title>n3</title><polygon fill="none" stroke="#000" points="171 -283 171 -307 195 -307 195 -283 171 -283"/><text x="177.552" y="-290.8" fill="#000" font-family="Serif" font-size="14" text-anchor="start">id</text></g><g id="e1" class="edge"><title>n1p3:s-&gt;n3:n</title><path fill="none" stroke="#000" d="M183,-357C183,-336.6875 183,-330.3002 183,-312.3811"/><polygon fill="#000" stroke="#000" points="184.75 -312 183 -307 181.25 -312 184.75 -312"/><text x="204.397" y="-327.8" fill="#000" font-family="Serif" font-size="14" text-anchor="middle">Library</text></g><g id="n6" class="node"><title>n6</title><polygon fill="none" stroke="#000" points="237 -241 237 -265 261 -265 261 -241 237 -241"/><text x="243.552" y="-248.8" fill="#000" font-family="Serif" font-size="14" text-anchor="start">id</text></g><g id="e2" class="edge"><title>n1p4:s-&gt;n6:n</title><path fill="none" stroke="#000" d="M246,-357C246,-317.8473 248.7477,-306.8421 248.9839,-270.1083"/><polygon fill="#000" stroke="#000" points="250.734 -270.005 249 -265 247.234 -269.994 250.734 -270.005"/><text x="272.459" y="-327.8" fill="#000" font-family="Serif" font-size="14" text-anchor="middle">Machine</text></g><g id="n5" class="node"><title>n5</title><polygon fill="none" stroke="#000" points="127 -199 127 -223 201 -223 201 -199 127 -199"/><text x="131.71" y="-206.8" fill="#000" font-family="Serif" font-size="14" text-anchor="start">implement</text></g><g id="e5" class="edge"><title>n3:s-&gt;n5:n</title><path fill="none" stroke="#000" d="M183,-283C183,-258.1042 183,-250.6403 183,-228.0596"/><polygon fill="#000" stroke="#000" points="184.75 -228 183 -223 181.25 -228 184.75 -228"/><text x="204.397" y="-248.8" fill="#000" font-family="Serif" font-size="14" text-anchor="middle">Library</text></g><g id="n4" class="node"><title>n4</title><polygon fill="none" stroke="#000" points="187 -51 187 -75 235 -75 235 -51 187 -51"/><text x="200.883" y="-58.8" fill="#000" font-family="Serif" font-size="14" text-anchor="start">run</text></g><g id="e6" class="edge"><title>n4:s-&gt;n2p1:n</title><path fill="none" stroke="#000" d="M211,-51C211,-30.6875 211,-24.3002 211,-6.3811"/><polygon fill="#000" stroke="#000" points="212.75 -6 211 -1 209.25 -6 212.75 -6"/><text x="236.296" y="-21.8" fill="#000" font-family="Serif" font-size="14" text-anchor="middle">Solution</text></g><g id="n8" class="node"><title>n8</title><polygon fill="none" stroke="#000" points="140 -125 140 -149 205 -149 205 -125 140 -125"/><text x="144.866" y="-132.8" fill="#000" font-family="Serif" font-size="14" text-anchor="start">generate</text></g><g id="e7" class="edge"><title>n5:s-&gt;n8:n</title><path fill="none" stroke="#000" d="M164,-199C164,-178.3611 171.5196,-172.5425 172.812,-154.4508"/><polygon fill="#000" stroke="#000" points="174.577 -154.057 173 -149 171.079 -153.937 174.577 -154.057"/><text x="186.734" y="-169.8" fill="#000" font-family="Serif" font-size="14" text-anchor="middle">Code</text></g><g id="e8" class="edge"><title>n6:s-&gt;n4:n</title><path fill="none" stroke="#000" d="M249,-241C249,-174.8852 255.0971,-155.6584 234,-93 231.6627,-86.0583 226.2636,-84.6991 224.0133,-79.966"/><polygon fill="#000" stroke="#000" points="225.714 -79.549 223 -75 222.285 -80.249 225.714 -79.549"/><text x="275.459" y="-169.8" fill="#000" font-family="Serif" font-size="14" text-anchor="middle">Machine</text></g><g id="e9" class="edge"><title>n7:s-&gt;n5:n</title><path fill="none" stroke="#000" d="M78,-283C78,-244.9009 138.866,-261.2346 144.5722,-228.2386"/><polygon fill="#000" stroke="#000" points="146.337 -228.126 145 -223 142.849 -227.841 146.337 -228.126"/><text x="155.065" y="-248.8" fill="#000" font-family="Serif" font-size="14" text-anchor="middle">Model</text></g><g id="e10" class="edge"><title>n8:s-&gt;n4:n</title><path fill="none" stroke="#000" d="M173,-125C173,-110.4107 173.1392,-105.7013 180.3174,-93 184.9267,-84.8441 194.3793,-85.6705 197.762,-80.0825"/><polygon fill="#000" stroke="#000" points="199.517 -80.272 199 -75 196.116 -79.444 199.517 -80.272"/><text x="206.841" y="-95.8" fill="#000" font-family="Serif" font-size="14" text-anchor="middle">Program</text></g></g></svg>