<svg xmlns="http://www.w3.org/2000/svg" xmlns:xlink="http://www.w3.org/1999/xlink" width="212pt" height="208pt" viewBox="0 0 212 208"><g id="graph0" class="graph" transform="scale(1 1) rotate(0) translate(4 204)"><title>G</title><polygon fill="#fff" stroke="transparent" points="-4 4 -4 -204 208 -204 208 4 -4 4"/><g id="n7" class="node"><title>n7</title><polygon fill="none" stroke="#000" points="36 -125 36 -149 84 -149 84 -125 36 -125"/><text x="54.555" y="-132.8" fill="#000" font-family="Serif" font-size="14" text-anchor="start">fit</text></g><g id="e3" class="edge"><title>n1p1:s-&gt;n7:n</title><path fill="none" stroke="#000" d="M12,-199C12,-173.4354 43.3775,-175.8918 47.5448,-154.0487"/><polygon fill="#000" stroke="#000" points="49.294 -154.137 48 -149 45.808 -153.823 49.294 -154.137"/><text x="44.669" y="-169.8" fill="#000" font-family="Serif" font-size="14" text-anchor="middle">X</text></g><g id="e4" class="edge"><title>n1p2:s-&gt;n7:n</title><path fill="none" stroke="#000" d="M72,-199C72,-178.6875 72,-172.3002 72,-154.3811"/><polygon fill="#000" stroke="#000" points="73.75 -154 72 -149 70.25 -154 73.75 -154"/><text x="77.669" y="-169.8" fill="#000" font-family="Serif" font-size="14" text-anchor="middle">Y</text></g><g id="n5" class="node"><title>n5</title><polygon fill="none" stroke="#000" points="120 -125 120 -149 144 -149 144 -125 120 -125"/><text x="126.552" y="-132.8" fill="#000" font-family="Serif" font-size="14" text-anchor="start">id</text></g><g id="e1" class="edge"><title>n1p3:s-&gt;n5:n</title><path fill="none" stroke="#000" d="M132,-199C132,-178.6875 132,-172.3002 132,-154.3811"/><polygon fill="#000" stroke="#000" points="133.75 -154 132 -149 130.25 -154 133.75 -154"/><text x="136.669" y="-169.8" fill="#000" font-family="Serif" font-size="14" text-anchor="middle">X</text></g><g id="n6" class="node"><title>n6</title><polygon fill="none" stroke="#000" points="179 -125 179 -149 203 -149 203 -125 179 -125"/><text x="185.552" y="-132.8" fill="#000" font-family="Serif" font-size="14" text-anchor="start">id</text></g><g id="e2" class="edge"><title>n1p4:s-&gt;n6:n</title><path fill="none" stroke="#000" d="M192,-199C192,-178.6834 191.1645,-172.3032 191.0209,-154.3819"/><polygon fill="#000" stroke="#000" points="192.769 -153.993 191 -149 189.269 -154.007 192.769 -153.993"/><text x="195.669" y="-169.8" fill="#000" font-family="Serif" font-size="14" text-anchor="middle">Y</text></g><g id="n3" class="node"><title>n3</title><polygon fill="none" stroke="#000" points="93 -51 93 -75 145 -75 145 -51 93 -51"/><text x="97.99" y="-58.8" fill="#000" font-family="Serif" font-size="14" text-anchor="start">predict</text></g><g id="e5" class="edge"><title>n3:s-&gt;n2p1:n</title><path fill="none" stroke="#000" d="M119,-51C119,-30.4291 125.6841,-24.4919 126.8329,-6.4362"/><polygon fill="#000" stroke="#000" points="128.595 -6.051 127 -1 125.097 -5.944 128.595 -6.051"/><text x="128.669" y="-21.8" fill="#000" font-family="Serif" font-size="14" text-anchor="middle">Y</text></g><g id="n4" class="node"><title>n4</title><polygon fill="none" stroke="#000" points="179 -51 179 -75 203 -75 203 -51 179 -51"/><text x="185.552" y="-58.8" fill="#000" font-family="Serif" font-size="14" text-anchor="start">id</text></g><g id="e6" class="edge"><title>n4:s-&gt;n2p2:n</title><path fill="none" stroke="#000" d="M191,-51C191,-30.651 188.4935,-24.3273 188.0627,-6.3889"/><polygon fill="#000" stroke="#000" points="189.808 -5.979 188 -1 186.308 -6.02 189.808 -5.979"/><text x="194.669" y="-21.8" fill="#000" font-family="Serif" font-size="14" text-anchor="middle">Y</text></g><g id="e7" class="edge"><title>n5:s-&gt;n3:n</title><path fill="none" stroke="#000" d="M132,-125C132,-104.6875 132,-98.3002 132,-80.3811"/><polygon fill="#000" stroke="#000" points="133.75 -80 132 -75 130.25 -80 133.75 -80"/><text x="136.669" y="-95.8" fill="#000" font-family="Serif" font-size="14" text-anchor="middle">X</text></g><g id="e8" class="edge"><title>n6:s-&gt;n4:n</title><path fill="none" stroke="#000" d="M191,-125C191,-104.6875 191,-98.3002 191,-80.3811"/><polygon fill="#000" stroke="#000" points="192.75 -80 191 -75 189.25 -80 192.75 -80"/><text x="195.669" y="-95.8" fill="#000" font-family="Serif" font-size="14" text-anchor="middle">Y</text></g><g id="e9" class="edge"><title>n7:s-&gt;n3:n</title><path fill="none" stroke="#000" d="M60,-125C60,-96.6912 100.4297,-104.0556 105.4834,-80.2059"/><polygon fill="#000" stroke="#000" points="107.248 -80.148 106 -75 103.765 -79.803 107.248 -80.148"/><text x="100.276" y="-95.8" fill="#000" font-family="Serif" font-size="14" text-anchor="middle">β</text></g></g></svg>