<svg xmlns="http://www.w3.org/2000/svg" xmlns:xlink="http://www.w3.org/1999/xlink" width="415pt" height="208pt" viewBox="0 0 415.13 208"><g id="graph0" class="graph" transform="scale(1 1) rotate(0) translate(4 204)"><title>G</title><polygon fill="#fff" stroke="transparent" points="-4 4 -4 -204 411.131 -204 411.131 4 -4 4"/><g id="n5" class="node"><title>n5</title><polygon fill="none" stroke="#000" points="0 -125 0 -149 24 -149 24 -125 0 -125"/><text x="6.552" y="-132.8" fill="#000" font-family="Serif" font-size="14" text-anchor="start">id</text></g><g id="e2" class="edge"><title>n1p1:s-&gt;n5:n</title><path fill="none" stroke="#000" d="M13,-199C13,-178.6834 12.1645,-172.3032 12.0209,-154.3819"/><polygon fill="#000" stroke="#000" points="13.77 -153.993 12 -149 10.27 -154.007 13.77 -153.993"/><text x="32.065" y="-169.8" fill="#000" font-family="Serif" font-size="14" text-anchor="middle">Model</text></g><g id="n7" class="node"><title>n7</title><polygon fill="none" stroke="#000" points="61 -125 61 -149 85 -149 85 -125 61 -125"/><text x="67.552" y="-132.8" fill="#000" font-family="Serif" font-size="14" text-anchor="start">id</text></g><g id="e7" class="edge"><title>n1p2:s-&gt;n7:n</title><path fill="none" stroke="#000" d="M73,-199C73,-178.6875 73,-172.3002 73,-154.3811"/><polygon fill="#000" stroke="#000" points="74.75 -154 73 -149 71.25 -154 74.75 -154"/><text x="92.065" y="-169.8" fill="#000" font-family="Serif" font-size="14" text-anchor="middle">Model</text></g><g id="n3" class="node"><title>n3</title><polygon fill="none" stroke="#000" points="122 -125 122 -149 146 -149 146 -125 122 -125"/><text x="128.552" y="-132.8" fill="#000" font-family="Serif" font-size="14" text-anchor="start">id</text></g><g id="e1" class="edge"><title>n1p3:s-&gt;n3:n</title><path fill="none" stroke="#000" d="M134,-199C134,-178.6875 134,-172.3002 134,-154.3811"/><polygon fill="#000" stroke="#000" points="135.75 -154 134 -149 132.25 -154 135.75 -154"/><text x="153.065" y="-169.8" fill="#000" font-family="Serif" font-size="14" text-anchor="middle">Model</text></g><g id="n6" class="node"><title>n6</title><polygon fill="none" stroke="#000" points="220 -125 220 -149 316 -149 316 -125 220 -125"/><text x="253.99" y="-132.8" fill="#000" font-family="Serif" font-size="14" text-anchor="start">dpor</text></g><g id="e3" class="edge"><title>n1p4:s-&gt;n6:n</title><path fill="none" stroke="#000" d="M195,-199C195,-182.4894 203.7344,-180.0342 213.8691,-167 219.5322,-159.7167 227.962,-159.882 230.9241,-154.1095"/><polygon fill="#000" stroke="#000" points="232.682 -154.253 232 -149 229.257 -153.532 232.682 -154.253"/><text x="232.065" y="-169.8" fill="#000" font-family="Serif" font-size="14" text-anchor="middle">Model</text></g><g id="e4" class="edge"><title>n1p5:s-&gt;n6:n</title><path fill="none" stroke="#000" d="M256,-199C256,-178.6875 256,-172.3002 256,-154.3811"/><polygon fill="#000" stroke="#000" points="257.75 -154 256 -149 254.25 -154 257.75 -154"/><text x="275.065" y="-169.8" fill="#000" font-family="Serif" font-size="14" text-anchor="middle">Model</text></g><g id="e5" class="edge"><title>n1p6:s-&gt;n6:n</title><path fill="none" stroke="#000" d="M317,-199C317,-181.7409 305.4245,-180.7552 295,-167 289.9878,-160.3863 283.4386,-159.4958 280.9849,-154.1373"/><polygon fill="#000" stroke="#000" points="282.66 -153.581 280 -149 279.223 -154.24 282.66 -153.581"/><text x="327.065" y="-169.8" fill="#000" font-family="Serif" font-size="14" text-anchor="middle">Model</text></g><g id="e6" class="edge"><title>n1p7:s-&gt;n6:n</title><path fill="none" stroke="#000" d="M377,-199C377,-180.3916 365.1291,-177.8343 350,-167 333.8242,-155.4162 309.1877,-168.0754 304.7106,-154.2106"/><polygon fill="#000" stroke="#000" points="306.41 -153.718 304 -149 302.942 -154.191 306.41 -153.718"/><text x="388.065" y="-169.8" fill="#000" font-family="Serif" font-size="14" text-anchor="middle">Model</text></g><g id="n4" class="node"><title>n4</title><polygon fill="none" stroke="#000" points="55 -51 55 -75 151 -75 151 -51 55 -51"/><text x="88.99" y="-58.8" fill="#000" font-family="Serif" font-size="14" text-anchor="start">dpor</text></g><g id="e8" class="edge"><title>n3:s-&gt;n4:n</title><path fill="none" stroke="#000" d="M134,-125C134,-103.0846 117.8528,-99.2863 115.3298,-80.2017"/><polygon fill="#000" stroke="#000" points="117.063 -79.879 115 -75 113.57 -80.101 117.063 -79.879"/><text x="147.065" y="-95.8" fill="#000" font-family="Serif" font-size="14" text-anchor="middle">Model</text></g><g id="e9" class="edge"><title>n4:s-&gt;n2p1:n</title><path fill="none" stroke="#000" d="M103,-51C103,-30.6875 103,-24.3002 103,-6.3811"/><polygon fill="#000" stroke="#000" points="104.75 -6 103 -1 101.25 -6 104.75 -6"/><text x="122.065" y="-21.8" fill="#000" font-family="Serif" font-size="14" text-anchor="middle">Model</text></g><g id="e10" class="edge"><title>n5:s-&gt;n4:n</title><path fill="none" stroke="#000" d="M12,-125C12,-108.7106 18.0223,-104.1802 29.8691,-93 41.7481,-81.7895 61.9203,-90.817 66.1909,-79.9698"/><polygon fill="#000" stroke="#000" points="67.924 -80.216 67 -75 64.469 -79.654 67.924 -80.216"/><text x="49.065" y="-95.8" fill="#000" font-family="Serif" font-size="14" text-anchor="middle">Model</text></g><g id="e11" class="edge"><title>n6:s-&gt;n4:n</title><path fill="none" stroke="#000" d="M268,-125C268,-111.0688 162.0537,-93.9486 142.1888,-79.4195"/><polygon fill="#000" stroke="#000" points="143.345 -78.031 139 -75 140.506 -80.079 143.345 -78.031"/><text x="245.065" y="-95.8" fill="#000" font-family="Serif" font-size="14" text-anchor="middle">Model</text></g><g id="e12" class="edge"><title>n7:s-&gt;n4:n</title><path fill="none" stroke="#000" d="M73,-125C73,-110.7725 68.4086,-106.1379 73.8691,-93 77.3131,-84.714 86.4697,-85.3007 89.7823,-79.8883"/><polygon fill="#000" stroke="#000" points="91.489 -80.275 91 -75 88.093 -79.429 91.489 -80.275"/><text x="93.065" y="-95.8" fill="#000" font-family="Serif" font-size="14" text-anchor="middle">Model</text></g></g></svg>