<svg xmlns="http://www.w3.org/2000/svg" xmlns:xlink="http://www.w3.org/1999/xlink" width="415pt" height="430pt" viewBox="0 0 415.13 430"><g id="graph0" class="graph" transform="scale(1 1) rotate(0) translate(4 426)"><title>G</title><polygon fill="#fff" stroke="transparent" points="-4 4 -4 -426 411.131 -426 411.131 4 -4 4"/><g id="n9" class="node"><title>n9</title><polygon fill="none" stroke="#000" points="55 -347 55 -371 127 -371 127 -347 55 -347"/><text x="62.6" y="-354.8" fill="#000" font-family="Serif" font-size="14" text-anchor="start">construct</text></g><g id="e5" class="edge"><title>n1p1:s-&gt;n9:n</title><path fill="none" stroke="#000" d="M12,-421C12,-404.9226 17.2529,-400.1151 28.8691,-389 40.9285,-377.461 61.753,-387.0631 66.1641,-376.0624"/><polygon fill="#000" stroke="#000" points="67.912 -376.218 67 -371 64.459 -375.648 67.912 -376.218"/><text x="48.065" y="-391.8" fill="#000" font-family="Serif" font-size="14" text-anchor="middle">Model</text></g><g id="e6" class="edge"><title>n1p2:s-&gt;n9:n</title><path fill="none" stroke="#000" d="M72,-421C72,-406.7725 67.2229,-402.0591 72.8691,-389 76.5305,-380.5317 86.2113,-381.4376 89.7129,-375.9845"/><polygon fill="#000" stroke="#000" points="91.444 -376.279 91 -371 88.055 -375.404 91.444 -376.279"/><text x="92.065" y="-391.8" fill="#000" font-family="Serif" font-size="14" text-anchor="middle">Model</text></g><g id="e7" class="edge"><title>n1p3:s-&gt;n9:n</title><path fill="none" stroke="#000" d="M133,-421C133,-399.2268 117.7026,-395.1774 115.3124,-376.1736"/><polygon fill="#000" stroke="#000" points="117.048 -375.885 115 -371 113.555 -376.096 117.048 -375.885"/><text x="147.065" y="-391.8" fill="#000" font-family="Serif" font-size="14" text-anchor="middle">Model</text></g><g id="n3" class="node"><title>n3</title><polygon fill="none" stroke="#000" points="219 -347 219 -371 291 -371 291 -347 219 -347"/><text x="226.6" y="-354.8" fill="#000" font-family="Serif" font-size="14" text-anchor="start">construct</text></g><g id="e1" class="edge"><title>n1p4:s-&gt;n3:n</title><path fill="none" stroke="#000" d="M194,-421C194,-404.4894 202.7344,-402.0342 212.8691,-389 218.5322,-381.7167 226.962,-381.882 229.9241,-376.1095"/><polygon fill="#000" stroke="#000" points="231.682 -376.253 231 -371 228.257 -375.532 231.682 -376.253"/><text x="231.065" y="-391.8" fill="#000" font-family="Serif" font-size="14" text-anchor="middle">Model</text></g><g id="e2" class="edge"><title>n1p5:s-&gt;n3:n</title><path fill="none" stroke="#000" d="M255,-421C255,-400.6875 255,-394.3002 255,-376.3811"/><polygon fill="#000" stroke="#000" points="256.75 -376 255 -371 253.25 -376 256.75 -376"/><text x="274.065" y="-391.8" fill="#000" font-family="Serif" font-size="14" text-anchor="middle">Model</text></g><g id="e3" class="edge"><title>n1p6:s-&gt;n3:n</title><path fill="none" stroke="#000" d="M316,-421C316,-403.7409 304.4245,-402.7552 294,-389 288.9878,-382.3863 282.4386,-381.4958 279.9849,-376.1373"/><polygon fill="#000" stroke="#000" points="281.66 -375.581 279 -371 278.223 -376.24 281.66 -375.581"/><text x="326.065" y="-391.8" fill="#000" font-family="Serif" font-size="14" text-anchor="middle">Model</text></g><g id="n7" class="node"><title>n7</title><polygon fill="none" stroke="#000" points="337 -347 337 -371 361 -371 361 -347 337 -347"/><text x="343.552" y="-354.8" fill="#000" font-family="Serif" font-size="14" text-anchor="start">id</text></g><g id="e4" class="edge"><title>n1p7:s-&gt;n7:n</title><path fill="none" stroke="#000" d="M376,-421C376,-397.6192 352.8591,-396.3214 349.4241,-376.2185"/><polygon fill="#000" stroke="#000" points="351.149 -375.842 349 -371 347.661 -376.125 351.149 -375.842"/><text x="388.065" y="-391.8" fill="#000" font-family="Serif" font-size="14" text-anchor="middle">Model</text></g><g id="n8" class="node"><title>n8</title><polygon fill="none" stroke="#000" points="242 -273 242 -297 294 -297 294 -273 242 -273"/><text x="246.997" y="-280.8" fill="#000" font-family="Serif" font-size="14" text-anchor="start">rewrite</text></g><g id="e8" class="edge"><title>n3:s-&gt;n8:n</title><path fill="none" stroke="#000" d="M255,-347C255,-326.6875 255,-320.3002 255,-302.3811"/><polygon fill="#000" stroke="#000" points="256.75 -302 255 -297 253.25 -302 256.75 -302"/><text x="269.397" y="-317.8" fill="#000" font-family="Serif" font-size="14" text-anchor="middle">Rule</text></g><g id="n4" class="node"><title>n4</title><polygon fill="none" stroke="#000" points="186 -51 186 -75 210 -75 210 -51 186 -51"/><text x="192.552" y="-58.8" fill="#000" font-family="Serif" font-size="14" text-anchor="start">id</text></g><g id="e9" class="edge"><title>n4:s-&gt;n2p1:n</title><path fill="none" stroke="#000" d="M198,-51C198,-30.6875 198,-24.3002 198,-6.3811"/><polygon fill="#000" stroke="#000" points="199.75 -6 198 -1 196.25 -6 199.75 -6"/><text x="217.065" y="-21.8" fill="#000" font-family="Serif" font-size="14" text-anchor="middle">Model</text></g><g id="n5" class="node"><title>n5</title><polygon fill="none" stroke="#000" points="212 -199 212 -223 236 -223 236 -199 212 -199"/><text x="218.552" y="-206.8" fill="#000" font-family="Serif" font-size="14" text-anchor="start">id</text></g><g id="n6" class="node"><title>n6</title><polygon fill="none" stroke="#000" points="159 -125 159 -149 211 -149 211 -125 159 -125"/><text x="163.997" y="-132.8" fill="#000" font-family="Serif" font-size="14" text-anchor="start">rewrite</text></g><g id="e10" class="edge"><title>n5:s-&gt;n6:n</title><path fill="none" stroke="#000" d="M224,-199C224,-175.8118 201.7162,-174.1716 198.4084,-154.182"/><polygon fill="#000" stroke="#000" points="200.137 -153.847 198 -149 196.648 -154.122 200.137 -153.847"/><text x="236.065" y="-169.8" fill="#000" font-family="Serif" font-size="14" text-anchor="middle">Model</text></g><g id="e11" class="edge"><title>n6:s-&gt;n4:n</title><path fill="none" stroke="#000" d="M198,-125C198,-104.6875 198,-98.3002 198,-80.3811"/><polygon fill="#000" stroke="#000" points="199.75 -80 198 -75 196.25 -80 199.75 -80"/><text x="217.065" y="-95.8" fill="#000" font-family="Serif" font-size="14" text-anchor="middle">Model</text></g><g id="e12" class="edge"><title>n7:s-&gt;n8:n</title><path fill="none" stroke="#000" d="M349,-347C349,-311.3922 287.7309,-332.1324 281.5083,-302.2474"/><polygon fill="#000" stroke="#000" points="283.224 -301.808 281 -297 279.74 -302.146 283.224 -301.808"/><text x="356.065" y="-317.8" fill="#000" font-family="Serif" font-size="14" text-anchor="middle">Model</text></g><g id="e13" class="edge"><title>n8:s-&gt;n5:n</title><path fill="none" stroke="#000" d="M281,-273C281,-241.1442 230.0639,-254.9487 224.4928,-228.087"/><polygon fill="#000" stroke="#000" points="226.224 -227.808 224 -223 222.74 -228.145 226.224 -227.808"/><text x="289.065" y="-243.8" fill="#000" font-family="Serif" font-size="14" text-anchor="middle">Model</text></g><g id="e14" class="edge"><title>n9:s-&gt;n6:n</title><path fill="none" stroke="#000" d="M91,-347C91,-253.6852 169.022,-244.4 171.9174,-154.2035"/><polygon fill="#000" stroke="#000" points="173.67 -154.027 172 -149 170.171 -153.972 173.67 -154.027"/><text x="150.397" y="-243.8" fill="#000" font-family="Serif" font-size="14" text-anchor="middle">Rule</text></g></g></svg>