<svg xmlns="http://www.w3.org/2000/svg" xmlns:xlink="http://www.w3.org/1999/xlink" width="235pt" height="208pt" viewBox="0 0 235.13 208"><g id="graph0" class="graph" transform="scale(1 1) rotate(0) translate(4 204)"><title>G</title><polygon fill="#fff" stroke="transparent" points="-4 4 -4 -204 231.131 -204 231.131 4 -4 4"/><g id="n5" class="node"><title>n5</title><polygon fill="none" stroke="#000" points="50 -125 50 -149 122 -149 122 -125 50 -125"/><text x="57.6" y="-132.8" fill="#000" font-family="Serif" font-size="14" text-anchor="start">construct</text></g><g id="e2" class="edge"><title>n1p1:s-&gt;n5:n</title><path fill="none" stroke="#000" d="M12,-199C12,-182.9226 17.5722,-178.4395 28.8691,-167 39.1722,-156.5669 56.8107,-163.4406 61.0594,-154.0957"/><polygon fill="#000" stroke="#000" points="62.813 -154.235 62 -149 59.371 -153.599 62.813 -154.235"/><text x="48.065" y="-169.8" fill="#000" font-family="Serif" font-size="14" text-anchor="middle">Model</text></g><g id="e3" class="edge"><title>n1p2:s-&gt;n5:n</title><path fill="none" stroke="#000" d="M72,-199C72,-184.7725 68.2763,-180.4658 72.8691,-167 75.3665,-159.6779 81.9762,-158.8542 84.7484,-154.1224"/><polygon fill="#000" stroke="#000" points="86.513 -154.273 86 -149 83.113 -153.442 86.513 -154.273"/><text x="92.065" y="-169.8" fill="#000" font-family="Serif" font-size="14" text-anchor="middle">Model</text></g><g id="e4" class="edge"><title>n1p3:s-&gt;n5:n</title><path fill="none" stroke="#000" d="M133,-199C133,-176.4504 113.4534,-173.7719 110.3992,-154.3271"/><polygon fill="#000" stroke="#000" points="112.119 -153.855 110 -149 108.629 -154.117 112.119 -153.855"/><text x="145.065" y="-169.8" fill="#000" font-family="Serif" font-size="14" text-anchor="middle">Model</text></g><g id="n3" class="node"><title>n3</title><polygon fill="none" stroke="#000" points="168 -125 168 -149 192 -149 192 -125 168 -125"/><text x="174.552" y="-132.8" fill="#000" font-family="Serif" font-size="14" text-anchor="start">id</text></g><g id="e1" class="edge"><title>n1p4:s-&gt;n3:n</title><path fill="none" stroke="#000" d="M193,-199C193,-177.8328 181.9519,-172.7135 180.2256,-154.0537"/><polygon fill="#000" stroke="#000" points="181.971 -153.917 180 -149 178.475 -154.073 181.971 -153.917"/><text x="208.065" y="-169.8" fill="#000" font-family="Serif" font-size="14" text-anchor="middle">Model</text></g><g id="n4" class="node"><title>n4</title><polygon fill="none" stroke="#000" points="93 -51 93 -75 145 -75 145 -51 93 -51"/><text x="97.997" y="-58.8" fill="#000" font-family="Serif" font-size="14" text-anchor="start">rewrite</text></g><g id="e5" class="edge"><title>n3:s-&gt;n4:n</title><path fill="none" stroke="#000" d="M180,-125C180,-96.0001 137.4602,-104.59 132.4751,-79.9951"/><polygon fill="#000" stroke="#000" points="134.216 -79.812 132 -75 130.731 -80.143 134.216 -79.812"/><text x="188.065" y="-95.8" fill="#000" font-family="Serif" font-size="14" text-anchor="middle">Model</text></g><g id="e6" class="edge"><title>n4:s-&gt;n2p1:n</title><path fill="none" stroke="#000" d="M106,-51C106,-40.2576 93.8429,-42.9803 89.8691,-33 85.3051,-21.5373 88.0032,-16.59 88.8004,-6.1998"/><polygon fill="#000" stroke="#000" points="90.557 -6.064 89 -1 87.059 -5.929 90.557 -6.064"/><text x="109.065" y="-21.8" fill="#000" font-family="Serif" font-size="14" text-anchor="middle">Model</text></g><g id="e7" class="edge"><title>n4:s-&gt;n2p2:n</title><path fill="none" stroke="#000" d="M132,-51C132,-29.3622 146.4475,-25.0738 148.7049,-6.1468"/><polygon fill="#000" stroke="#000" points="150.461 -6.092 149 -1 146.967 -5.892 150.461 -6.092"/><text x="163.065" y="-21.8" fill="#000" font-family="Serif" font-size="14" text-anchor="middle">Model</text></g><g id="e8" class="edge"><title>n5:s-&gt;n4:n</title><path fill="none" stroke="#000" d="M86,-125C86,-109.9308 91.3994,-106.9051 97.207,-93 99.8342,-86.7098 103.5928,-84.7193 105.2103,-80.1359"/><polygon fill="#000" stroke="#000" points="106.97 -80.208 106 -75 103.51 -79.676 106.97 -80.208"/><text x="112.397" y="-95.8" fill="#000" font-family="Serif" font-size="14" text-anchor="middle">Rule</text></g></g></svg>