<svg xmlns="http://www.w3.org/2000/svg" xmlns:xlink="http://www.w3.org/1999/xlink" width="600" height="400" viewBox="0 0 2400 1600"><defs><clipPath id="clip8300"><rect width="2000" height="2000" x="0" y="0"/></clipPath></defs><defs><clipPath id="clip8301"><rect width="2400" height="1600" x="0" y="0"/></clipPath></defs><polygon fill="#fff" fill-opacity="1" fill-rule="evenodd" points="0 1600 2400 1600 2400 0 0 0" clip-path="url(#clip8301)"/><defs><clipPath id="clip8302"><rect width="1681" height="1600" x="480" y="0"/></clipPath></defs><polygon fill="#fff" fill-opacity="1" fill-rule="evenodd" points="176.123 1503.47 2321.26 1503.47 2321.26 47.244 176.123 47.244" clip-path="url(#clip8301)"/><defs><clipPath id="clip8303"><rect width="2146" height="1457" x="176" y="47"/></clipPath></defs><polyline fill="none" stroke="#000" stroke-opacity=".1" stroke-width="2" points="236.834 1503.47 236.834 47.244" clip-path="url(#clip8303)"/><polyline fill="none" stroke="#000" stroke-opacity=".1" stroke-width="2" points="773.641 1503.47 773.641 47.244" clip-path="url(#clip8303)"/><polyline fill="none" stroke="#000" stroke-opacity=".1" stroke-width="2" points="1310.45 1503.47 1310.45 47.244" clip-path="url(#clip8303)"/><polyline fill="none" stroke="#000" stroke-opacity=".1" stroke-width="2" points="1847.25 1503.47 1847.25 47.244" clip-path="url(#clip8303)"/><polyline fill="none" stroke="#000" stroke-opacity=".1" stroke-width="2" points="176.123 1333.66 2321.26 1333.66" clip-path="url(#clip8303)"/><polyline fill="none" stroke="#000" stroke-opacity=".1" stroke-width="2" points="176.123 1056.95 2321.26 1056.95" clip-path="url(#clip8303)"/><polyline fill="none" stroke="#000" stroke-opacity=".1" stroke-width="2" points="176.123 780.236 2321.26 780.236" clip-path="url(#clip8303)"/><polyline fill="none" stroke="#000" stroke-opacity=".1" stroke-width="2" points="176.123 503.525 2321.26 503.525" clip-path="url(#clip8303)"/><polyline fill="none" stroke="#000" stroke-opacity=".1" stroke-width="2" points="176.123 226.814 2321.26 226.814" clip-path="url(#clip8303)"/><polyline fill="none" stroke="#000" stroke-opacity="1" stroke-width="4" points="176.123 1503.47 2321.26 1503.47" clip-path="url(#clip8301)"/><polyline fill="none" stroke="#000" stroke-opacity="1" stroke-width="4" points="176.123 1503.47 176.123 47.244" clip-path="url(#clip8301)"/><polyline fill="none" stroke="#000" stroke-opacity="1" stroke-width="4" points="236.834 1503.47 236.834 1481.63" clip-path="url(#clip8301)"/><polyline fill="none" stroke="#000" stroke-opacity="1" stroke-width="4" points="773.641 1503.47 773.641 1481.63" clip-path="url(#clip8301)"/><polyline fill="none" stroke="#000" stroke-opacity="1" stroke-width="4" points="1310.45 1503.47 1310.45 1481.63" clip-path="url(#clip8301)"/><polyline fill="none" stroke="#000" stroke-opacity="1" stroke-width="4" points="1847.25 1503.47 1847.25 1481.63" clip-path="url(#clip8301)"/><polyline fill="none" stroke="#000" stroke-opacity="1" stroke-width="4" points="176.123 1333.66 208.3 1333.66" clip-path="url(#clip8301)"/><polyline fill="none" stroke="#000" stroke-opacity="1" stroke-width="4" points="176.123 1056.95 208.3 1056.95" clip-path="url(#clip8301)"/><polyline fill="none" stroke="#000" stroke-opacity="1" stroke-width="4" points="176.123 780.236 208.3 780.236" clip-path="url(#clip8301)"/><polyline fill="none" stroke="#000" stroke-opacity="1" stroke-width="4" points="176.123 503.525 208.3 503.525" clip-path="url(#clip8301)"/><polyline fill="none" stroke="#000" stroke-opacity="1" stroke-width="4" points="176.123 226.814 208.3 226.814" clip-path="url(#clip8301)"/><g clip-path="url(#clip8301)"><text x="236.834" y="1557.47" fill="#000" fill-opacity="1" font-family="Arial,Helvetica Neue,Helvetica,sans-serif" font-size="48" text-anchor="middle" transform="rotate(0, 236.834, 1557.47)">0</text></g><g clip-path="url(#clip8301)"><text x="773.641" y="1557.47" fill="#000" fill-opacity="1" font-family="Arial,Helvetica Neue,Helvetica,sans-serif" font-size="48" text-anchor="middle" transform="rotate(0, 773.641, 1557.47)">200</text></g><g clip-path="url(#clip8301)"><text x="1310.45" y="1557.47" fill="#000" fill-opacity="1" font-family="Arial,Helvetica Neue,Helvetica,sans-serif" font-size="48" text-anchor="middle" transform="rotate(0, 1310.45, 1557.47)">400</text></g><g clip-path="url(#clip8301)"><text x="1847.25" y="1557.47" fill="#000" fill-opacity="1" font-family="Arial,Helvetica Neue,Helvetica,sans-serif" font-size="48" text-anchor="middle" transform="rotate(0, 1847.25, 1557.47)">600</text></g><g clip-path="url(#clip8301)"><text x="152.123" y="1351.16" fill="#000" fill-opacity="1" font-family="Arial,Helvetica Neue,Helvetica,sans-serif" font-size="48" text-anchor="end" transform="rotate(0, 152.123, 1351.16)">-20</text></g><g clip-path="url(#clip8301)"><text x="152.123" y="1074.45" fill="#000" fill-opacity="1" font-family="Arial,Helvetica Neue,Helvetica,sans-serif" font-size="48" text-anchor="end" transform="rotate(0, 152.123, 1074.45)">-10</text></g><g clip-path="url(#clip8301)"><text x="152.123" y="797.736" fill="#000" fill-opacity="1" font-family="Arial,Helvetica Neue,Helvetica,sans-serif" font-size="48" text-anchor="end" transform="rotate(0, 152.123, 797.736)">0</text></g><g clip-path="url(#clip8301)"><text x="152.123" y="521.025" fill="#000" fill-opacity="1" font-family="Arial,Helvetica Neue,Helvetica,sans-serif" font-size="48" text-anchor="end" transform="rotate(0, 152.123, 521.025)">10</text></g><g clip-path="url(#clip8301)"><text x="152.123" y="244.314" fill="#000" fill-opacity="1" font-family="Arial,Helvetica Neue,Helvetica,sans-serif" font-size="48" text-anchor="end" transform="rotate(0, 152.123, 244.314)">20</text></g><polyline fill="none" stroke="#009af9" stroke-opacity="1" stroke-width="4" points="236.834 88.458 237.148 88.46 240.283 88.654 266.677 103.051 328.128 221.037 416.15 553.155 516.443 1022.02 620.684 1388.97 749.289 1419.63 872.032 1006.26 1018.94 345.213 1158.63 90.271 1314.44 495.532 1471.5 1203.71 1628.17 1462.26 1793.71 958.911 1961.71 239.619 2129.05 166.646 2260.55 653.591" clip-path="url(#clip8303)"/><polygon fill="#fff" fill-opacity="1" fill-rule="evenodd" points="1958.43 251.724 2249.26 251.724 2249.26 130.764 1958.43 130.764" clip-path="url(#clip8301)"/><polyline fill="none" stroke="#000" stroke-opacity="1" stroke-width="4" points="1958.43 251.724 2249.26 251.724 2249.26 130.764 1958.43 130.764 1958.43 251.724" clip-path="url(#clip8301)"/><polyline fill="none" stroke="#009af9" stroke-opacity="1" stroke-width="4" points="1982.43 191.244 2126.43 191.244" clip-path="url(#clip8301)"/><g clip-path="url(#clip8301)"><text x="2150.43" y="208.744" fill="#000" fill-opacity="1" font-family="Arial,Helvetica Neue,Helvetica,sans-serif" font-size="48" text-anchor="start" transform="rotate(0, 2150.43, 208.744)">y1</text></g></svg>