<svg xmlns="http://www.w3.org/2000/svg" xmlns:xlink="http://www.w3.org/1999/xlink" width="445pt" height="220" viewBox="0 0 444.79 165"><g id="graph0" class="graph" transform="scale(1 1) rotate(0) translate(4 161)"><title>G</title><polygon fill="#fff" stroke="transparent" points="-4 4 -4 -161 440.79 -161 440.79 4 -4 4"/><g id="node1" class="node"><title>X₁</title><ellipse cx="72.8" cy="-64.5" fill="#1c86ee" stroke="#1c86ee" rx="20.6" ry="20.6"/><text x="72.8" y="-60.8" font-family="Times,serif" font-size="14" text-anchor="middle">X₁</text></g><g id="node4" class="node"><title>T1</title><polygon fill="#228b22" stroke="#228b22" points="175.6 -123.5 139.6 -123.5 139.6 -87.5 175.6 -87.5 175.6 -123.5"/><text x="157.6" y="-101.8" font-family="Times,serif" font-size="14" text-anchor="middle">T1</text></g><g id="edge1" class="edge"><title>X₁-&gt;T1</title><path fill="none" stroke="#000" d="M86.58,-80.13C93.27,-87.22 102.05,-95.01 111.6,-99.5 116.95,-102.02 123.02,-103.57 128.94,-104.52"/><polygon fill="#000" stroke="#000" points="128.92 -108.03 139.24 -105.63 129.67 -101.08 128.92 -108.03"/></g><g id="node5" class="node"><title>T2</title><polygon fill="#228b22" stroke="#228b22" points="175.6 -69.5 139.6 -69.5 139.6 -33.5 175.6 -33.5 175.6 -69.5"/><text x="157.6" y="-47.8" font-family="Times,serif" font-size="14" text-anchor="middle">T2</text></g><g id="edge3" class="edge"><title>X₁-&gt;T2</title><path fill="none" stroke="#000" d="M91.28,-54.19C97.48,-51.08 104.65,-48.07 111.6,-46.5 117.25,-45.22 123.38,-45.1 129.25,-45.56"/><polygon fill="#000" stroke="#000" points="128.97 -49.06 139.35 -46.93 129.91 -42.12 128.97 -49.06"/><text x="116.6" y="-50.3" font-family="Times,serif" font-size="14" text-anchor="middle">1</text></g><g id="node9" class="node"><title>O1</title><polygon fill="#fff" stroke="transparent" points="168.1 -15 147.1 -15 147.1 0 168.1 0 168.1 -15"/><text x="157.6" y="-3.8" font-family="Times,serif" font-size="14" text-anchor="middle">O1</text></g><g id="edge10" class="edge"><title>X₁-&gt;O1</title><path fill="none" stroke="#000" stroke-dasharray="5 2" d="M90.55,-52.97C104.51,-43.36 124.34,-29.71 138.62,-19.88"/><polygon fill="#000" stroke="#000" points="140.84 -22.6 147.09 -14.05 136.87 -16.83 140.84 -22.6"/></g><g id="node2" class="node"><title>X₂</title><ellipse cx="264.39" cy="-89.5" fill="#1c86ee" stroke="#1c86ee" rx="20.6" ry="20.6"/><text x="264.39" y="-85.8" font-family="Times,serif" font-size="14" text-anchor="middle">X₂</text></g><g id="edge4" class="edge"><title>X₂-&gt;T2</title><path fill="none" stroke="#000" d="M251.34,-72.86C244.71,-65.13 235.77,-56.74 225.6,-52.5 213.3,-47.38 198.61,-46.64 186.12,-47.38"/><polygon fill="#000" stroke="#000" points="185.45 -43.93 175.82 -48.35 186.11 -50.9 185.45 -43.93"/><text x="209.6" y="-56.3" font-family="Times,serif" font-size="14" text-anchor="middle">1</text></g><g id="node6" class="node"><title>T3</title><polygon fill="#228b22" stroke="#228b22" points="358.19 -139.5 322.19 -139.5 322.19 -103.5 358.19 -103.5 358.19 -139.5"/><text x="340.19" y="-117.8" font-family="Times,serif" font-size="14" text-anchor="middle">T3</text></g><g id="edge6" class="edge"><title>X₂-&gt;T3</title><path fill="none" stroke="#000" d="M283.64,-97.41C292.47,-101.24 303.24,-105.91 312.94,-110.12"/><polygon fill="#000" stroke="#000" points="311.61 -113.35 322.17 -114.12 314.39 -106.93 311.61 -113.35"/></g><g id="node10" class="node"><title>O2</title><polygon fill="#fff" stroke="transparent" points="350.69 -85 329.69 -85 329.69 -70 350.69 -70 350.69 -85"/><text x="340.19" y="-73.8" font-family="Times,serif" font-size="14" text-anchor="middle">O2</text></g><g id="edge11" class="edge"><title>X₂-&gt;O2</title><path fill="none" stroke="#000" stroke-dasharray="5 2" d="M285.17,-86.28C295.82,-84.55 308.91,-82.42 319.54,-80.7"/><polygon fill="#000" stroke="#000" points="320.21 -84.13 329.52 -79.07 319.08 -77.22 320.21 -84.13"/></g><g id="node3" class="node"><title>X₃</title><ellipse cx="415.99" cy="-121.5" fill="#1c86ee" stroke="#1c86ee" rx="20.6" ry="20.6"/><text x="415.99" y="-117.8" font-family="Times,serif" font-size="14" text-anchor="middle">X₃</text></g><g id="edge2" class="edge"><title>T1-&gt;X₁</title><path fill="none" stroke="#000" d="M139.44,-91.71C133.96,-87.73 127.72,-83.62 121.6,-80.5 115.76,-77.53 109.26,-74.92 102.97,-72.73"/><polygon fill="#000" stroke="#000" points="103.99 -69.38 93.4 -69.62 101.83 -76.04 103.99 -69.38"/><text x="116.6" y="-84.3" font-family="Times,serif" font-size="14" text-anchor="middle">2</text></g><g id="edge5" class="edge"><title>T2-&gt;X₂</title><path fill="none" stroke="#000" d="M175.86,-59.9C181.46,-62.49 187.73,-65.25 193.6,-67.5 206.88,-72.61 221.91,-77.46 234.61,-81.3"/><polygon fill="#000" stroke="#000" points="233.63 -84.66 244.22 -84.15 235.62 -77.95 233.63 -84.66"/><text x="209.6" y="-82.3" font-family="Times,serif" font-size="14" text-anchor="middle">1.15</text></g><g id="edge7" class="edge"><title>T3-&gt;X₃</title><path fill="none" stroke="#000" d="M358.31,-121.5C366.2,-121.5 375.82,-121.5 384.87,-121.5"/><polygon fill="#000" stroke="#000" points="385.09 -125 395.09 -121.5 385.09 -118 385.09 -125"/></g><g id="node7" class="node"><title>I1</title><polygon fill="#fff" stroke="transparent" points="15 -72 0 -72 0 -57 15 -57 15 -72"/><text x="7.5" y="-60.8" font-family="Times,serif" font-size="14" text-anchor="middle">I1</text></g><g id="edge8" class="edge"><title>I1-&gt;X₁</title><path fill="none" stroke="#000" stroke-dasharray="5 2" d="M15.27,-64.5C21.71,-64.5 31.86,-64.5 41.79,-64.5"/><polygon fill="#000" stroke="#000" points="41.9 -68 51.9 -64.5 41.9 -61 41.9 -68"/></g><g id="node8" class="node"><title>I2</title><polygon fill="#fff" stroke="transparent" points="165.1 -157 150.1 -157 150.1 -142 165.1 -142 165.1 -157"/><text x="157.6" y="-145.8" font-family="Times,serif" font-size="14" text-anchor="middle">I2</text></g><g id="edge9" class="edge"><title>I2-&gt;X₂</title><path fill="none" stroke="#000" stroke-dasharray="5 2" d="M165.15,-145.75C179.23,-137.68 213.05,-118.33 237.06,-104.58"/><polygon fill="#000" stroke="#000" points="239.09 -107.45 246.03 -99.44 235.62 -101.37 239.09 -107.45"/></g></g></svg>