<svg xmlns="http://www.w3.org/2000/svg" xmlns:xlink="http://www.w3.org/1999/xlink" width="331pt" height="100" viewBox="0 0 331 74.5"><g id="graph0" class="graph" transform="scale(1 1) rotate(0) translate(4 70.5)"><title>G</title><polygon fill="#fff" stroke="transparent" points="-4 4 -4 -70.5 327 -70.5 327 4 -4 4"/><g id="n5" class="node"><title>n5</title><polygon fill="none" stroke="#000" points="37 -41 37 -66 83 -66 83 -41 37 -41"/><text x="42" y="-49.8" font-family="Serif" font-size="14" text-anchor="start">birth</text></g><g id="e2" class="edge"><title>n1p1:e-&gt;n5:w</title><path fill="none" stroke="#000" d="M1,-54C15.13,-54 19.89,-53.22 31.83,-53.04"/><polygon fill="#000" stroke="#000" points="32.01 -54.79 37 -53 31.99 -51.29 32.01 -54.79"/></g><g id="n3" class="node"><title>n3</title><polygon fill="none" stroke="#000" points="119 -9 119 -57 199 -57 199 -9 119 -9"/><text x="124" y="-29.3" font-family="Serif" font-size="14" text-anchor="start">predation</text></g><g id="e1" class="edge"><title>n1p2:e-&gt;n3:w</title><path fill="none" stroke="#000" d="M1,-12C51.85,-12 65.51,-20.41 113.89,-20.97"/><polygon fill="#000" stroke="#000" points="113.99 -22.72 119 -21 114.01 -19.22 113.99 -22.72"/></g><g id="e3" class="edge"><title>n3:e-&gt;n2p1:w</title><path fill="none" stroke="#000" d="M199,-45C252.1,-45 266.31,-53.45 316.98,-53.97"/><polygon fill="#000" stroke="#000" points="316.99 -55.72 322 -54 317.01 -52.22 316.99 -55.72"/></g><g id="n4" class="node"><title>n4</title><polygon fill="none" stroke="#000" points="235.5 0 235.5 -25 286.5 -25 286.5 0 235.5 0"/><text x="240.5" y="-8.8" font-family="Serif" font-size="14" text-anchor="start">death</text></g><g id="e4" class="edge"><title>n3:e-&gt;n4:w</title><path fill="none" stroke="#000" d="M199,-21C213.56,-21 217.62,-13.99 229.71,-12.34"/><polygon fill="#000" stroke="#000" points="230.12 -14.07 235 -12 229.9 -10.58 230.12 -14.07"/></g><g id="e5" class="edge"><title>n4:e-&gt;n2p2:w</title><path fill="none" stroke="#000" d="M286,-12C300.12,-12 304.9,-12 316.83,-12"/><polygon fill="#000" stroke="#000" points="317 -13.75 322 -12 317 -10.25 317 -13.75"/></g><g id="e6" class="edge"><title>n5:e-&gt;n3:w</title><path fill="none" stroke="#000" d="M83,-53C97.47,-53 101.67,-46.77 113.74,-45.3"/><polygon fill="#000" stroke="#000" points="114.11 -47.04 119 -45 113.91 -43.54 114.11 -47.04"/></g></g></svg>