<svg xmlns="http://www.w3.org/2000/svg" xmlns:xlink="http://www.w3.org/1999/xlink" width="172pt" height="376" viewBox="0 0 172 282"><g id="graph0" class="graph" transform="scale(1 1) rotate(0) translate(4 278)"><title>G</title><polygon fill="#fff" stroke="transparent" points="-4 4 -4 -278 168 -278 168 4 -4 4"/><g id="n7" class="node"><title>n7</title><polygon fill="none" stroke="#000" points="67.5 -199 67.5 -223 134.5 -223 134.5 -199 67.5 -199"/><text x="72.204" y="-206.8" fill="#000" font-family="Serif" font-size="14" text-anchor="start">exposure</text></g><g id="e1" class="edge"><title>n1p1:s-&gt;n7:n</title><path fill="none" stroke="#000" d="M65.5,-273C65.5,-251.0846 81.6472,-247.2863 84.1702,-228.2017"/><polygon fill="#000" stroke="#000" points="85.93 -228.101 84.5 -223 82.437 -227.879 85.93 -228.101"/><text x="84.169" y="-243.8" fill="#000" font-family="Serif" font-size="14" text-anchor="middle">S</text></g><g id="e2" class="edge"><title>n1p2:s-&gt;n7:n</title><path fill="none" stroke="#000" d="M125.5,-273C125.5,-252.4894 119.6514,-246.4472 118.6462,-228.4234"/><polygon fill="#000" stroke="#000" points="120.384 -227.951 118.5 -223 116.885 -228.045 120.384 -227.951"/><text x="125.445" y="-243.8" fill="#000" font-family="Serif" font-size="14" text-anchor="middle">I</text></g><g id="n3" class="node"><title>n3</title><polygon fill="none" stroke="#000" points="36.5 -51 36.5 -75 64.5 -75 64.5 -51 36.5 -51"/><text x="41.159" y="-58.8" fill="#000" font-family="Serif" font-size="14" text-anchor="start">die</text></g><g id="e3" class="edge"><title>n3:s-&gt;n2p1:n</title><path fill="none" stroke="#000" d="M50.5,-51C50.5,-29.3622 64.9475,-25.0738 67.2049,-6.1468"/><polygon fill="#000" stroke="#000" points="68.961 -6.092 67.5 -1 65.467 -5.892 68.961 -6.092"/><text x="68.555" y="-21.8" fill="#000" font-family="Serif" font-size="14" text-anchor="middle">D</text></g><g id="n4" class="node"><title>n4</title><polygon fill="none" stroke="#000" points="120.5 -51 120.5 -75 144.5 -75 144.5 -51 120.5 -51"/><text x="127.052" y="-58.8" fill="#000" font-family="Serif" font-size="14" text-anchor="start">id</text></g><g id="e4" class="edge"><title>n4:s-&gt;n2p2:n</title><path fill="none" stroke="#000" d="M132.5,-51C132.5,-30.6226 129.158,-24.3483 128.5835,-6.3949"/><polygon fill="#000" stroke="#000" points="130.327 -5.972 128.5 -1 126.828 -6.027 130.327 -5.972"/><text x="135.555" y="-21.8" fill="#000" font-family="Serif" font-size="14" text-anchor="middle">R</text></g><g id="n5" class="node"><title>n5</title><polygon fill="none" stroke="#000" points=".5 -125 .5 -149 83.5 -149 83.5 -125 .5 -125"/><text x="5.424" y="-132.8" fill="#000" font-family="Serif" font-size="14" text-anchor="start">progression</text></g><g id="e5" class="edge"><title>n5:s-&gt;n3:n</title><path fill="none" stroke="#000" d="M42.5,-125C42.5,-104.4291 49.1841,-98.4919 50.3329,-80.4362"/><polygon fill="#000" stroke="#000" points="52.096 -80.051 50.5 -75 48.597 -79.944 52.096 -80.051"/><text x="50.445" y="-95.8" fill="#000" font-family="Serif" font-size="14" text-anchor="middle">I</text></g><g id="n6" class="node"><title>n6</title><polygon fill="none" stroke="#000" points="101.5 -125 101.5 -149 164.5 -149 164.5 -125 101.5 -125"/><text x="106.159" y="-132.8" fill="#000" font-family="Serif" font-size="14" text-anchor="start">recovery</text></g><g id="e6" class="edge"><title>n6:s-&gt;n4:n</title><path fill="none" stroke="#000" d="M133.5,-125C133.5,-104.6834 132.6645,-98.3032 132.5209,-80.3819"/><polygon fill="#000" stroke="#000" points="134.269 -79.993 132.5 -75 130.769 -80.007 134.269 -79.993"/><text x="137.555" y="-95.8" fill="#000" font-family="Serif" font-size="14" text-anchor="middle">R</text></g><g id="e7" class="edge"><title>n7:s-&gt;n5:n</title><path fill="none" stroke="#000" d="M84.5,-199C84.5,-171.792 47.5859,-177.1612 42.9717,-154.0253"/><polygon fill="#000" stroke="#000" points="44.71 -153.815 42.5 -149 41.225 -154.142 44.71 -153.815"/><text x="80.169" y="-169.8" fill="#000" font-family="Serif" font-size="14" text-anchor="middle">E</text></g><g id="e8" class="edge"><title>n7:s-&gt;n6:n</title><path fill="none" stroke="#000" d="M118.5,-199C118.5,-177.6119 131.2478,-172.8826 133.2396,-154.0974"/><polygon fill="#000" stroke="#000" points="134.993 -154.083 133.5 -149 131.497 -153.904 134.993 -154.083"/><text x="130.445" y="-169.8" fill="#000" font-family="Serif" font-size="14" text-anchor="middle">I</text></g></g></svg>