<svg xmlns="http://www.w3.org/2000/svg" xmlns:xlink="http://www.w3.org/1999/xlink" width="172pt" height="376" viewBox="0 0 172 282"><g id="graph0" class="graph" transform="scale(1 1) rotate(0) translate(4 278)"><title>G</title><polygon fill="#fff" stroke="transparent" points="-4 4 -4 -278 168 -278 168 4 -4 4"/><g id="n7" class="node"><title>n7</title><polygon fill="none" stroke="#000" points="67.5 -199 67.5 -223 134.5 -223 134.5 -199 67.5 -199"/><text x="72.204" y="-206.8" fill="#000" font-family="Serif" font-size="14" text-anchor="start">exposure</text></g><g id="e1" class="edge"><title>n1p1:s-&gt;n7:n</title><path fill="none" stroke="#000" d="M65.5,-273C65.5,-251.0846 81.6472,-247.2863 84.1702,-228.2017"/><polygon fill="#000" stroke="#000" points="85.93 -228.101 84.5 -223 82.437 -227.879 85.93 -228.101"/><text x="84.169" y="-243.8" fill="#000" font-family="Serif" font-size="14" text-anchor="middle">S</text></g><g id="e2" class="edge"><title>n1p2:s-&gt;n7:n</title><path fill="none" stroke="#000" d="M125.5,-273C125.5,-252.4894 119.6514,-246.4472 118.6462,-228.4234"/><polygon fill="#000" stroke="#000" points="120.384 -227.951 118.5 -223 116.885 -228.045 120.384 -227.951"/><text x="125.445" y="-243.8" fill="#000" font-family="Serif" font-size="14" text-anchor="middle">I</text></g><g id="n3" class="node"><title>n3</title><polygon fill="none" stroke="#000" points="26.5 -51 26.5 -75 80.5 -75 80.5 -51 26.5 -51"/><text x="31.317" y="-58.8" fill="#000" font-family="Serif" font-size="14" text-anchor="start">waning</text></g><g id="e3" class="edge"><title>n3:s-&gt;n2p1:n</title><path fill="none" stroke="#000" d="M53.5,-51C53.5,-30.024 62.8484,-24.5671 64.3091,-6.0159"/><polygon fill="#000" stroke="#000" points="66.058 -6.063 64.5 -1 62.561 -5.93 66.058 -6.063"/><text x="67.169" y="-21.8" fill="#000" font-family="Serif" font-size="14" text-anchor="middle">S</text></g><g id="n4" class="node"><title>n4</title><polygon fill="none" stroke="#000" points="103.5 -51 103.5 -75 157.5 -75 157.5 -51 103.5 -51"/><text x="108.317" y="-58.8" fill="#000" font-family="Serif" font-size="14" text-anchor="start">waning</text></g><g id="e4" class="edge"><title>n4:s-&gt;n2p2:n</title><path fill="none" stroke="#000" d="M130.5,-51C130.5,-30.651 127.9935,-24.3273 127.5627,-6.3889"/><polygon fill="#000" stroke="#000" points="129.308 -5.979 127.5 -1 125.808 -6.02 129.308 -5.979"/><text x="134.169" y="-21.8" fill="#000" font-family="Serif" font-size="14" text-anchor="middle">S</text></g><g id="n5" class="node"><title>n5</title><polygon fill="none" stroke="#000" points=".5 -125 .5 -149 83.5 -149 83.5 -125 .5 -125"/><text x="5.424" y="-132.8" fill="#000" font-family="Serif" font-size="14" text-anchor="start">progression</text></g><g id="e5" class="edge"><title>n5:s-&gt;n3:n</title><path fill="none" stroke="#000" d="M42.5,-125C42.5,-104.024 51.8484,-98.5671 53.3091,-80.0159"/><polygon fill="#000" stroke="#000" points="55.059 -80.063 53.5 -75 51.561 -79.93 55.059 -80.063"/><text x="53.445" y="-95.8" fill="#000" font-family="Serif" font-size="14" text-anchor="middle">I</text></g><g id="n6" class="node"><title>n6</title><polygon fill="none" stroke="#000" points="101.5 -125 101.5 -149 164.5 -149 164.5 -125 101.5 -125"/><text x="106.159" y="-132.8" fill="#000" font-family="Serif" font-size="14" text-anchor="start">recovery</text></g><g id="e6" class="edge"><title>n6:s-&gt;n4:n</title><path fill="none" stroke="#000" d="M133.5,-125C133.5,-104.651 130.9935,-98.3273 130.5627,-80.3889"/><polygon fill="#000" stroke="#000" points="132.308 -79.979 130.5 -75 128.808 -80.02 132.308 -79.979"/><text x="137.555" y="-95.8" fill="#000" font-family="Serif" font-size="14" text-anchor="middle">R</text></g><g id="e7" class="edge"><title>n7:s-&gt;n5:n</title><path fill="none" stroke="#000" d="M84.5,-199C84.5,-171.792 47.5859,-177.1612 42.9717,-154.0253"/><polygon fill="#000" stroke="#000" points="44.71 -153.815 42.5 -149 41.225 -154.142 44.71 -153.815"/><text x="80.169" y="-169.8" fill="#000" font-family="Serif" font-size="14" text-anchor="middle">E</text></g><g id="e8" class="edge"><title>n7:s-&gt;n6:n</title><path fill="none" stroke="#000" d="M118.5,-199C118.5,-177.6119 131.2478,-172.8826 133.2396,-154.0974"/><polygon fill="#000" stroke="#000" points="134.993 -154.083 133.5 -149 131.497 -153.904 134.993 -154.083"/><text x="130.445" y="-169.8" fill="#000" font-family="Serif" font-size="14" text-anchor="middle">I</text></g></g></svg>