<svg xmlns="http://www.w3.org/2000/svg" xmlns:xlink="http://www.w3.org/1999/xlink" width="172pt" height="356pt" viewBox="0 0 172 356"><g id="graph0" class="graph" transform="scale(1 1) rotate(0) translate(4 352)"><title>G</title><polygon fill="#fff" stroke="transparent" points="-4 4 -4 -352 168 -352 168 4 -4 4"/><g id="n9" class="node"><title>n9</title><polygon fill="none" stroke="#000" points="67.5 -273 67.5 -297 134.5 -297 134.5 -273 67.5 -273"/><text x="72.204" y="-280.8" fill="#000" font-family="Serif" font-size="14" text-anchor="start">exposure</text></g><g id="e1" class="edge"><title>n1p1:s-&gt;n9:n</title><path fill="none" stroke="#000" d="M65.5,-347C65.5,-325.0846 81.6472,-321.2863 84.1702,-302.2017"/><polygon fill="#000" stroke="#000" points="85.93 -302.101 84.5 -297 82.437 -301.879 85.93 -302.101"/><text x="84.169" y="-317.8" fill="#000" font-family="Serif" font-size="14" text-anchor="middle">S</text></g><g id="e2" class="edge"><title>n1p2:s-&gt;n9:n</title><path fill="none" stroke="#000" d="M125.5,-347C125.5,-326.4894 119.6514,-320.4472 118.6462,-302.4234"/><polygon fill="#000" stroke="#000" points="120.384 -301.951 118.5 -297 116.885 -302.045 120.384 -301.951"/><text x="125.445" y="-317.8" fill="#000" font-family="Serif" font-size="14" text-anchor="middle">I</text></g><g id="n3" class="node"><title>n3</title><polygon fill="none" stroke="#000" points="43.5 -51 43.5 -75 76.5 -75 76.5 -51 43.5 -51"/><text x="48.331" y="-58.8" fill="#000" font-family="Serif" font-size="14" text-anchor="start">rest</text></g><g id="e3" class="edge"><title>n3:s-&gt;n2p1:n</title><path fill="none" stroke="#000" d="M60.5,-51C60.5,-30.6713 62.171,-24.3122 62.4582,-6.3845"/><polygon fill="#000" stroke="#000" points="64.211 -6.013 62.5 -1 60.711 -5.986 64.211 -6.013"/><text x="67.555" y="-21.8" fill="#000" font-family="Serif" font-size="14" text-anchor="middle">D</text></g><g id="n4" class="node"><title>n4</title><polygon fill="none" stroke="#000" points="98.5 -51 98.5 -75 152.5 -75 152.5 -51 98.5 -51"/><text x="103.317" y="-58.8" fill="#000" font-family="Serif" font-size="14" text-anchor="start">waning</text></g><g id="e4" class="edge"><title>n4:s-&gt;n2p2:n</title><path fill="none" stroke="#000" d="M125.5,-51C125.5,-30.651 122.9935,-24.3273 122.5627,-6.3889"/><polygon fill="#000" stroke="#000" points="124.308 -5.979 122.5 -1 120.808 -6.02 124.308 -5.979"/><text x="129.169" y="-21.8" fill="#000" font-family="Serif" font-size="14" text-anchor="middle">S</text></g><g id="n5" class="node"><title>n5</title><polygon fill="none" stroke="#000" points="31.5 -125 31.5 -149 59.5 -149 59.5 -125 31.5 -125"/><text x="36.159" y="-132.8" fill="#000" font-family="Serif" font-size="14" text-anchor="start">die</text></g><g id="e5" class="edge"><title>n5:s-&gt;n3:n</title><path fill="none" stroke="#000" d="M45.5,-125C45.5,-103.6119 58.2478,-98.8826 60.2396,-80.0974"/><polygon fill="#000" stroke="#000" points="61.993 -80.083 60.5 -75 58.497 -79.904 61.993 -80.083"/><text x="61.555" y="-95.8" fill="#000" font-family="Serif" font-size="14" text-anchor="middle">D</text></g><g id="n6" class="node"><title>n6</title><polygon fill="none" stroke="#000" points="120.5 -125 120.5 -149 144.5 -149 144.5 -125 120.5 -125"/><text x="127.052" y="-132.8" fill="#000" font-family="Serif" font-size="14" text-anchor="start">id</text></g><g id="e6" class="edge"><title>n6:s-&gt;n4:n</title><path fill="none" stroke="#000" d="M132.5,-125C132.5,-104.4894 126.6514,-98.4472 125.6462,-80.4234"/><polygon fill="#000" stroke="#000" points="127.384 -79.951 125.5 -75 123.885 -80.045 127.384 -79.951"/><text x="135.555" y="-95.8" fill="#000" font-family="Serif" font-size="14" text-anchor="middle">R</text></g><g id="n7" class="node"><title>n7</title><polygon fill="none" stroke="#000" points=".5 -199 .5 -223 83.5 -223 83.5 -199 .5 -199"/><text x="5.424" y="-206.8" fill="#000" font-family="Serif" font-size="14" text-anchor="start">progression</text></g><g id="e7" class="edge"><title>n7:s-&gt;n5:n</title><path fill="none" stroke="#000" d="M42.5,-199C42.5,-178.651 45.0065,-172.3273 45.4373,-154.3889"/><polygon fill="#000" stroke="#000" points="47.192 -154.02 45.5 -149 43.692 -153.979 47.192 -154.02"/><text x="47.445" y="-169.8" fill="#000" font-family="Serif" font-size="14" text-anchor="middle">I</text></g><g id="n8" class="node"><title>n8</title><polygon fill="none" stroke="#000" points="101.5 -199 101.5 -223 164.5 -223 164.5 -199 101.5 -199"/><text x="106.159" y="-206.8" fill="#000" font-family="Serif" font-size="14" text-anchor="start">recovery</text></g><g id="e8" class="edge"><title>n8:s-&gt;n6:n</title><path fill="none" stroke="#000" d="M133.5,-199C133.5,-178.6834 132.6645,-172.3032 132.5209,-154.3819"/><polygon fill="#000" stroke="#000" points="134.269 -153.993 132.5 -149 130.769 -154.007 134.269 -153.993"/><text x="137.555" y="-169.8" fill="#000" font-family="Serif" font-size="14" text-anchor="middle">R</text></g><g id="e9" class="edge"><title>n9:s-&gt;n7:n</title><path fill="none" stroke="#000" d="M84.5,-273C84.5,-245.792 47.5859,-251.1612 42.9717,-228.0253"/><polygon fill="#000" stroke="#000" points="44.71 -227.815 42.5 -223 41.225 -228.142 44.71 -227.815"/><text x="80.169" y="-243.8" fill="#000" font-family="Serif" font-size="14" text-anchor="middle">E</text></g><g id="e10" class="edge"><title>n9:s-&gt;n8:n</title><path fill="none" stroke="#000" d="M118.5,-273C118.5,-251.6119 131.2478,-246.8826 133.2396,-228.0974"/><polygon fill="#000" stroke="#000" points="134.993 -228.083 133.5 -223 131.497 -227.904 134.993 -228.083"/><text x="130.445" y="-243.8" fill="#000" font-family="Serif" font-size="14" text-anchor="middle">I</text></g></g></svg>