<svg xmlns="http://www.w3.org/2000/svg" xmlns:xlink="http://www.w3.org/1999/xlink" width="172pt" height="208pt" viewBox="0 0 172 208"><g id="graph0" class="graph" transform="scale(1 1) rotate(0) translate(4 204)"><title>G</title><polygon fill="#fff" stroke="transparent" points="-4 4 -4 -204 168 -204 168 4 -4 4"/><g id="n5" class="node"><title>n5</title><polygon fill="none" stroke="#000" points="67.5 -125 67.5 -149 134.5 -149 134.5 -125 67.5 -125"/><text x="72.204" y="-132.8" fill="#000" font-family="Serif" font-size="14" text-anchor="start">exposure</text></g><g id="e1" class="edge"><title>n1p1:s-&gt;n5:n</title><path fill="none" stroke="#000" d="M65.5,-199C65.5,-177.0846 81.6472,-173.2863 84.1702,-154.2017"/><polygon fill="#000" stroke="#000" points="85.93 -154.101 84.5 -149 82.437 -153.879 85.93 -154.101"/><text x="84.169" y="-169.8" fill="#000" font-family="Serif" font-size="14" text-anchor="middle">S</text></g><g id="e2" class="edge"><title>n1p2:s-&gt;n5:n</title><path fill="none" stroke="#000" d="M125.5,-199C125.5,-178.4894 119.6514,-172.4472 118.6462,-154.4234"/><polygon fill="#000" stroke="#000" points="120.384 -153.951 118.5 -149 116.885 -154.045 120.384 -153.951"/><text x="125.445" y="-169.8" fill="#000" font-family="Serif" font-size="14" text-anchor="middle">I</text></g><g id="n3" class="node"><title>n3</title><polygon fill="none" stroke="#000" points=".5 -51 .5 -75 83.5 -75 83.5 -51 .5 -51"/><text x="5.424" y="-58.8" fill="#000" font-family="Serif" font-size="14" text-anchor="start">progression</text></g><g id="e3" class="edge"><title>n3:s-&gt;n2p1:n</title><path fill="none" stroke="#000" d="M42.5,-51C42.5,-29.0846 58.6472,-25.2863 61.1702,-6.2017"/><polygon fill="#000" stroke="#000" points="62.93 -6.101 61.5 -1 59.437 -5.879 62.93 -6.101"/><text x="58.445" y="-21.8" fill="#000" font-family="Serif" font-size="14" text-anchor="middle">I</text></g><g id="n4" class="node"><title>n4</title><polygon fill="none" stroke="#000" points="101.5 -51 101.5 -75 164.5 -75 164.5 -51 101.5 -51"/><text x="106.159" y="-58.8" fill="#000" font-family="Serif" font-size="14" text-anchor="start">recovery</text></g><g id="e4" class="edge"><title>n4:s-&gt;n2p2:n</title><path fill="none" stroke="#000" d="M133.5,-51C133.5,-30.6226 130.158,-24.3483 129.5835,-6.3949"/><polygon fill="#000" stroke="#000" points="131.327 -5.972 129.5 -1 127.828 -6.027 131.327 -5.972"/><text x="136.555" y="-21.8" fill="#000" font-family="Serif" font-size="14" text-anchor="middle">R</text></g><g id="e5" class="edge"><title>n5:s-&gt;n3:n</title><path fill="none" stroke="#000" d="M84.5,-125C84.5,-97.792 47.5859,-103.1612 42.9717,-80.0253"/><polygon fill="#000" stroke="#000" points="44.71 -79.815 42.5 -75 41.225 -80.142 44.71 -79.815"/><text x="80.169" y="-95.8" fill="#000" font-family="Serif" font-size="14" text-anchor="middle">E</text></g><g id="e6" class="edge"><title>n5:s-&gt;n4:n</title><path fill="none" stroke="#000" d="M118.5,-125C118.5,-103.6119 131.2478,-98.8826 133.2396,-80.0974"/><polygon fill="#000" stroke="#000" points="134.993 -80.083 133.5 -75 131.497 -79.904 134.993 -80.083"/><text x="130.445" y="-95.8" fill="#000" font-family="Serif" font-size="14" text-anchor="middle">I</text></g></g></svg>