<svg xmlns="http://www.w3.org/2000/svg" xmlns:xlink="http://www.w3.org/1999/xlink" width="152pt" height="208pt" viewBox="0 0 152 208"><g id="graph0" class="graph" transform="scale(1 1) rotate(0) translate(4 204)"><title>G</title><polygon fill="#fff" stroke="transparent" points="-4 4 -4 -204 148 -204 148 4 -4 4"/><g id="n5" class="node"><title>n5</title><polygon fill="none" stroke="#000" points="53.5 -125 53.5 -149 115.5 -149 115.5 -125 53.5 -125"/><text x="58.428" y="-132.8" fill="#000" font-family="Serif" font-size="14" text-anchor="start">infection</text></g><g id="e1" class="edge"><title>n1p1:s-&gt;n5:n</title><path fill="none" stroke="#000" d="M47.5,-199C47.5,-176.7804 65.3469,-173.5192 68.1355,-154.2619"/><polygon fill="#000" stroke="#000" points="69.9 -154.109 68.5 -149 66.409 -153.867 69.9 -154.109"/><text x="68.169" y="-169.8" fill="#000" font-family="Serif" font-size="14" text-anchor="middle">S</text></g><g id="e2" class="edge"><title>n1p2:s-&gt;n5:n</title><path fill="none" stroke="#000" d="M107.5,-199C107.5,-178.4894 101.6514,-172.4472 100.6462,-154.4234"/><polygon fill="#000" stroke="#000" points="102.384 -153.951 100.5 -149 98.885 -154.045 102.384 -153.951"/><text x="107.445" y="-169.8" fill="#000" font-family="Serif" font-size="14" text-anchor="middle">I</text></g><g id="n3" class="node"><title>n3</title><polygon fill="none" stroke="#000" points=".5 -51 .5 -75 63.5 -75 63.5 -51 .5 -51"/><text x="5.159" y="-58.8" fill="#000" font-family="Serif" font-size="14" text-anchor="start">recovery</text></g><g id="e3" class="edge"><title>n3:s-&gt;n2p1:n</title><path fill="none" stroke="#000" d="M32.5,-51C32.5,-29.8328 43.5481,-24.7135 45.2744,-6.0537"/><polygon fill="#000" stroke="#000" points="47.025 -6.073 45.5 -1 43.529 -5.917 47.025 -6.073"/><text x="47.555" y="-21.8" fill="#000" font-family="Serif" font-size="14" text-anchor="middle">R</text></g><g id="n4" class="node"><title>n4</title><polygon fill="none" stroke="#000" points="81.5 -51 81.5 -75 144.5 -75 144.5 -51 81.5 -51"/><text x="86.159" y="-58.8" fill="#000" font-family="Serif" font-size="14" text-anchor="start">recovery</text></g><g id="e4" class="edge"><title>n4:s-&gt;n2p2:n</title><path fill="none" stroke="#000" d="M113.5,-51C113.5,-30.651 110.9935,-24.3273 110.5627,-6.3889"/><polygon fill="#000" stroke="#000" points="112.308 -5.979 110.5 -1 108.808 -6.02 112.308 -5.979"/><text x="117.555" y="-21.8" fill="#000" font-family="Serif" font-size="14" text-anchor="middle">R</text></g><g id="e5" class="edge"><title>n5:s-&gt;n3:n</title><path fill="none" stroke="#000" d="M68.5,-125C68.5,-99.4354 37.1225,-101.8918 32.9552,-80.0487"/><polygon fill="#000" stroke="#000" points="34.692 -79.823 32.5 -75 31.206 -80.137 34.692 -79.823"/><text x="62.445" y="-95.8" fill="#000" font-family="Serif" font-size="14" text-anchor="middle">I</text></g><g id="e6" class="edge"><title>n5:s-&gt;n4:n</title><path fill="none" stroke="#000" d="M100.5,-125C100.5,-103.8328 111.5481,-98.7135 113.2744,-80.0537"/><polygon fill="#000" stroke="#000" points="115.025 -80.073 113.5 -75 111.529 -79.917 115.025 -80.073"/><text x="111.445" y="-95.8" fill="#000" font-family="Serif" font-size="14" text-anchor="middle">I</text></g></g></svg>